<?xml version="1.0" encoding="utf-8"?>
<!-- Generator: Adobe Illustrator 22.0.0, SVG Export Plug-In . SVG Version: 6.00 Build 0)  -->
<svg version="1.1" id="Capa_1" xmlns="http://www.w3.org/2000/svg" xmlns:xlink="http://www.w3.org/1999/xlink" x="0px" y="0px"
	 viewBox="0 0 100 100" style="enable-background:new 0 0 100 100;" xml:space="preserve">
<style type="text/css">
	.st0{fill:#484B6D;}
</style>
<path class="st0" d="M26,63.9c1.6,4.1,4.1,7.5,7.3,10.2c9.6,8,20.5,10.6,32.6,7.3c2-0.5,4.1-1.1,6.1-1.1c3.7-0.1,6.2,2.1,7.1,5.6
	c0.9,3.5-0.4,7-3.8,8.5c-3.3,1.5-6.8,2.6-10.3,3.2c-21.3,3.9-43.1-6.5-52.9-26C-2.3,42.7,13.8,8.2,46.7,2.4
	c16.5-2.9,31.2,1.3,43.5,12.9c3,2.8,4.5,6.1,2.9,10.2c-1,2.5-3,4.1-5.3,5.3c-17.2,9.2-34.5,18.5-51.7,27.7
	C32.8,60.3,29.5,62.1,26,63.9z M22.9,53.9c18.2-9.7,36-19.4,54.3-29.2c-1.7-1.2-2.9-2.3-4.3-3.2c-14.7-9.1-40.4-5.7-49.1,17.9
	C22.1,44,21.5,48.7,22.9,53.9z"/>
</svg>
