<?xml version="1.0" encoding="utf-8"?>
<!-- Generator: Adobe Illustrator 16.0.3, SVG Export Plug-In . SVG Version: 6.00 Build 0)  -->
<!DOCTYPE svg PUBLIC "-//W3C//DTD SVG 1.1//EN" "http://www.w3.org/Graphics/SVG/1.1/DTD/svg11.dtd">
<svg version="1.1" id="Capa_1" xmlns="http://www.w3.org/2000/svg" xmlns:xlink="http://www.w3.org/1999/xlink" x="0px" y="0px"
	 width="100px" height="100px" viewBox="0 0 100 100" enable-background="new 0 0 100 100" xml:space="preserve">
<path fill="#F2F2F2" d="M26.027,63.94c1.633,4.132,4.101,7.467,7.325,10.17c9.595,8.042,20.455,10.565,32.604,7.298
	c1.995-0.536,4.056-1.091,6.093-1.142c3.691-0.1,6.228,2.071,7.14,5.614c0.891,3.481-0.374,6.982-3.767,8.489
	c-3.281,1.456-6.804,2.599-10.332,3.235c-21.322,3.851-43.138-6.496-52.91-25.968C-2.327,42.736,13.752,8.236,46.674,2.439
	c16.524-2.905,31.162,1.318,43.517,12.903c2.974,2.788,4.459,6.123,2.917,10.197c-0.958,2.525-3.021,4.068-5.323,5.304
	C70.543,40.07,53.303,49.303,36.067,58.532C32.762,60.303,29.465,62.089,26.027,63.94z M22.938,53.916
	c18.151-9.742,36.047-19.355,54.328-29.174c-1.662-1.222-2.938-2.303-4.339-3.171c-14.744-9.13-40.374-5.685-49.113,17.904
	C22.121,44.05,21.486,48.725,22.938,53.916z"/>
</svg>
