<?xml version="1.0" encoding="utf-8"?>
<!-- Generator: Adobe Illustrator 22.0.0, SVG Export Plug-In . SVG Version: 6.00 Build 0)  -->
<svg version="1.1" id="Layer_1" xmlns="http://www.w3.org/2000/svg" xmlns:xlink="http://www.w3.org/1999/xlink" x="0px" y="0px"
	 viewBox="0 0 100 100" style="enable-background:new 0 0 100 100;" xml:space="preserve">
<style type="text/css">
	.st0{display:none;fill:none;}
	.st1{fill:#484B6D;}
</style>
<rect x="-60" y="-63" class="st0" width="323" height="265"/>
<g>
	<path class="st1" d="M87.4,77.8c-0.4,0.7-0.8,1.6-1.3,2.2c-2.3,2.4-4.8,4.8-7.2,7.2c-1.4,1.4-2.5,1.5-4.3,0.5
		c-2.2-1.3-4.5-2.7-6.7-4c-0.3-0.2-0.8-0.6-1-0.5c-1.5,0.5-2.9,1.4-4.4,1.7c-1.9,0.5-2.1,1.9-2.5,3.4c-0.6,2.5-1.2,4.9-1.8,7.4
		c-0.6,2.3-1.4,3-3.8,3c-3.2,0-6.4,0-9.7,0c-2.1,0-3-0.6-3.5-2.7c-0.7-2.6-1.3-5.3-1.9-7.9c-0.1-0.5-0.2-1-0.4-1.5
		c-0.4-1.4-6-3.7-7.2-2.9c-2.2,1.3-4.4,2.6-6.6,3.9c-1.9,1.1-3,1-4.5-0.5c-2.3-2.3-4.7-4.6-7-7c-1.5-1.5-1.6-2.6-0.6-4.4
		c1.3-2.2,2.7-4.3,3.9-6.6c0.3-0.6,0.2-1.4,0.1-2.1c-0.1-0.5-0.6-1-0.7-1.5c-0.5-2.9-2.4-4.1-5.2-4.5c-2.2-0.3-4.3-1-6.4-1.5
		C2.7,58.9,2,58,2,55.9c0-3.3,0-6.6,0-9.8c0-2.2,0.7-3,2.8-3.6c3-0.8,6-1.4,9-2.3c0.6-0.2,1-0.8,1.6-1.3c0,0,0-0.1,0.1-0.2
		c2-3,1.5-5.7-0.7-8.4c-1.1-1.3-1.8-3-2.7-4.5s-0.8-2.9,0.5-4.1c2.4-2.4,4.8-4.8,7.2-7.2c1.5-1.4,2.5-1.6,4.3-0.5
		c2.3,1.3,4.6,2.7,6.8,4.1c1.1,0.7,2,0.9,3.1,0.2c0.5-0.4,1.2-0.7,1.8-0.8c2.5-0.4,3.4-2.1,3.8-4.4c0.4-2.3,1-4.6,1.6-6.9
		c0.6-2.2,1.4-2.8,3.6-2.8c3.3,0,6.6,0,9.8,0c2.1,0,3,0.7,3.5,2.7C58.9,9,59.6,12,60.3,15c0.1,0.3,0.1,0.6,0.2,0.8
		c0.5,1.2,6.1,3.2,7.2,2.5c2.3-1.3,4.6-2.7,6.8-4.1c1.9-1.1,2.9-1,4.5,0.5c2.3,2.3,4.7,4.6,7,7c1.5,1.5,1.6,2.5,0.5,4.4
		c-1.3,2.2-2.6,4.5-4,6.7c-0.5,0.8-0.8,1.6-0.1,2.5c0.2,0.2,0.3,0.5,0.4,0.8c0.6,3.5,2.9,4.8,6.2,5.2c2,0.2,4,0.9,5.9,1.4
		c1.7,0.4,2.5,1.5,2.5,3.3c0,3.4,0,6.8,0,10.2c0,1.8-0.8,2.9-2.6,3.3c-3.1,0.8-6.2,1.5-9.2,2.3c-0.7,0.2-1.2,1-1.7,1.5
		c-0.2,0.3-0.2,0.8-0.4,1.1c-1.9,2.6-1.1,5,0.7,7.3c1,1.2,1.7,2.7,2.4,4.1C86.8,76.3,87,76.9,87.4,77.8z M49.7,31.5
		c-10.7,0-19.4,8.7-19.5,19.3c-0.1,10.9,8.6,19.6,19.5,19.7c10.6,0.1,19.5-8.7,19.5-19.3C69.2,40.3,60.6,31.5,49.7,31.5z"/>
</g>
</svg>
