<?xml version="1.0" encoding="utf-8"?>
<!-- Generator: Adobe Illustrator 22.0.0, SVG Export Plug-In . SVG Version: 6.00 Build 0)  -->
<svg version="1.1" id="Layer_1" xmlns="http://www.w3.org/2000/svg" xmlns:xlink="http://www.w3.org/1999/xlink" x="0px" y="0px"
	 viewBox="0 0 100 100" style="enable-background:new 0 0 100 100;" xml:space="preserve">
<style type="text/css">
	.st0{fill:#EEEEEE;}
</style>
<g>
	<path class="st0" d="M63,41.9c0,8.5,0,17,0,25.5c0,1.4-0.4,2.5-1.6,3.3c-2.2,1.5-5.2,0.1-5.5-2.5c-0.1-0.5,0-0.9,0-1.4
		c0-16.5,0-33,0-49.5c0-1.6-0.4-2.9-1.8-3.7c-1.6-0.9-3.3-0.6-4.7,1C43.1,22.1,36.6,29.5,30.3,37c-1.5,1.7-3,2.6-5.3,2.4
		c-1.9-0.1-3.8,0-5.7,0c-4.6,0.1-7.5,2.9-7.5,7.5c0,2.7,0,5.5,0,8.2c0,4.5,2.9,7.4,7.4,7.5c2.3,0,4.5,0,6.8,0c1.6,0,2.7,0.6,3.8,1.7
		c6.6,7.7,13.2,15.4,19.9,23.1c1.6,1.9,3.8,2.1,5.4,0.4c0.6-0.6,0.9-1.6,1-2.4c0.3-2.3,1.8-3.7,3.9-3.5c2,0.2,3.3,1.8,3.2,4
		c-0.2,4.4-3,8-7.2,9.5c-4,1.4-8.4,0.2-11.3-3.1c-6-7-12.1-14-18.1-21c-1-1.2-2-1.8-3.6-1.7c-2.4,0.1-5,0.1-7.3-0.4
		c-5.9-1.3-10.1-6-10.6-12.1c-0.4-4.3-0.3-8.7,0.1-13c0.7-6.3,6.4-11.3,12.8-11.7c2-0.1,4-0.1,6,0c0.9,0,1.4-0.3,2-0.9
		c6.2-7.2,12.4-14.4,18.6-21.7c2-2.4,4.6-3.7,7.8-3.8c6.1-0.1,10.8,4.5,10.9,10.8c0.1,5.6,0,11.2,0,16.9C63,36.4,63,39.2,63,41.9z"
		/>
	<path class="st0" d="M94.7,50c-0.2,11.7-3.9,20.8-11.4,28.4c-2.1,2.2-5.4,1.4-6.1-1.4c-0.4-1.4,0.2-2.6,1.1-3.6
		c2.7-2.8,4.9-5.9,6.4-9.4c4.2-9.8,3.8-19.5-1.4-28.8c-1.4-2.5-3.5-4.7-5.3-7.1c-0.9-1.1-1.2-2.4-0.6-3.7c0.5-1.3,1.6-2,3-2.1
		c1.2-0.1,2.1,0.4,2.9,1.2c5.6,5.6,9.2,12.3,10.6,20.1C94.3,46,94.5,48.5,94.7,50z"/>
	<path class="st0" d="M80.5,51.3c0,3.3-0.9,6.5-2.6,9.6c-0.8,1.5-2.3,2.3-3.8,2c-1.5-0.3-2.8-1.4-2.9-3C71.3,59,71.6,58,72,57.2
		c1.9-3.8,2-7.5,0.4-11.4c-0.2-0.5-0.5-1-0.8-1.6c-0.8-1.8-0.2-3.8,1.4-4.7c1.7-0.9,3.7-0.4,4.8,1.4C79.7,44,80.6,47.4,80.5,51.3z"
		/>
</g>
<g>
</g>
<g>
</g>
<g>
</g>
<g>
</g>
<g>
</g>
<g>
</g>
<g>
</g>
<g>
</g>
<g>
</g>
<g>
</g>
<g>
</g>
<g>
</g>
<g>
</g>
<g>
</g>
<g>
</g>
</svg>
